# xmcd
#
# Track frame offsets: 
#        150
#        8233
#        18118
#        28388
#        37495
#        46068
#        56694
#        81108
#        97493
#        108846
#        124632
#        135247
#        150432
#        165648
#        180443
#        194418
#        210533
#        225703
#        238819
#        249332
#        260912
#
# Disc length: 3751 seconds
#
# Revision: 0
# Processed by: cddbd v1.5.2PL0 Copyright (c) Steve Scherf et al.
# Submitted via: ExactAudioCopy v0.95b4
#
DISCID=1b0ea515
DTITLE=Martin und Sabine Pyrker - A Father's Dream
DYEAR=2007
DGENRE=Blues
TTITLE0=A Father' Dream
TTITLE1=Drum the Boogie
TTITLE2=Key to the Highway
TTITLE3=Freddie's got the Blues
TTITLE4=Charlie Booty Stomp
TTITLE5=Speedy Andrea
TTITLE6=Karina's Boogie Woogie
TTITLE7=Pinetop's Boogie Woogie
TTITLE8=Jimmy's Rocks
TTITLE9=Goodbye Ma!
TTITLE10=Cow Cow Blues
TTITLE11=Roll'em Pete
TTITLE12=Christine's Blues
TTITLE13=I Can't Sleep
TTITLE14=Indiana Avenue Stomp
TTITLE15=Shout for Joy
TTITLE16=Chicago Breakdown
TTITLE17=Fort Worth Stomp
TTITLE18=Babies Boogie
TTITLE19=Grooving the Blues
TTITLE20=Mostar Blues
EXTD=
EXTT0=
EXTT1=
EXTT2=
EXTT3=
EXTT4=
EXTT5=
EXTT6=
EXTT7=
EXTT8=
EXTT9=
EXTT10=
EXTT11=
EXTT12=
EXTT13=
EXTT14=
EXTT15=
EXTT16=
EXTT17=
EXTT18=
EXTT19=
EXTT20=
PLAYORDER=
